<svg xmlns="http://www.w3.org/2000/svg" width="428.045" height="246.19" viewBox="0 0 428.045 246.19">
    <path id="Tracé_4" data-name="Tracé 4" d="M258.76,245.68v-91h28.41v68.17H427.54v22.84H258.76Z" fill="none" stroke="#5d6064" stroke-miterlimit="10" stroke-width="1"/>
    <rect id="Rectangle_1" data-name="Rectangle 1" width="28.41" height="154" transform="translate(393.55 0.68)" fill="none" stroke="#5d6064" stroke-miterlimit="10" stroke-width="1"/>
    <path id="Tracé_5" data-name="Tracé 5" d="M351.22,134.26c-20.89-8.63-46.51-31.75-57.09-55.7-7.8,25.9-34.53,52.36-59.04,62.38L217.82,118.1c35.09-13.65,61.27-46.51,61.27-84.94V16.68h29.24V32.05c0,39.27,30.36,69.9,59.6,79.37Z" fill="none" stroke="#5d6064" stroke-miterlimit="10" stroke-width="1"/>
    <path id="Tracé_6" data-name="Tracé 6" d="M40.37,245.58v-93.3H202.18v93.3ZM173.5,174.84H69.34v47.9H173.5Z" fill="none" stroke="#5d6064" stroke-miterlimit="10" stroke-width="1"/>
    <rect id="Rectangle_2" data-name="Rectangle 2" width="28.69" height="138.14" transform="translate(173.5 0.5)" fill="none" stroke="#5d6064" stroke-miterlimit="10" stroke-width="1"/>
    <path id="Tracé_7" data-name="Tracé 7" d="M15.59,141.14.82,118.31c43.17-8.08,87.73-35.37,95.25-78.26H13.08V16.37H127.27C125.59,84.05,80.2,124.71,15.59,141.14Z" fill="none" stroke="white" stroke-miterlimit="10" stroke-width="1"/>
</svg>
